<?xml version="1.0" encoding="UTF-8" standalone="no"?>
<svg
   version="1.1"
   width="512"
   height="512"
   id="svg1"
   xmlns="http://www.w3.org/2000/svg"
   xmlns:svg="http://www.w3.org/2000/svg">
  <defs
     id="defs1" />
  <path
     d="m 435,112 c 0.57363,0.38656 1.14727,0.77312 1.73828,1.17139 C 461.56693,129.9485 479.22598,164.55483 487,193 c 0.89434,4.93879 1.60182,9.19454 0,14 -3.61007,1.80503 -7.12722,1.66888 -11,1 -7.54037,-3.22869 -13.44358,-8.08925 -19.36328,-13.65625 -9.12393,-8.11016 -18.97257,-15.16696 -31.63672,-14.66797 -16.11313,1.74139 -31.13744,10.54682 -45.2334,18.04395 -1.04446,0.54882 -2.08892,1.09763 -3.16504,1.66308 -0.93247,0.50161 -1.86495,1.00322 -2.82568,1.52002 -3.16203,1.2498 -5.40448,1.44206 -8.77588,1.09717 -2.125,-1.9375 -2.125,-1.9375 -4,-4 -4.60412,-1.65577 -9.75761,-1.32705 -14.58984,-1.52344 C 342.75779,195.96615 340.84807,195.32329 338,193 c -1.24536,-2.56445 -1.9908,-5.09446 -2.8125,-7.82031 -1.01417,-2.40889 -1.01417,-2.40889 -3.625,-3.17188 -2.56064,-0.2336 -2.56064,-0.2336 -4.40625,1.13281 -1.56612,2.5185 -1.26337,3.73448 -0.65625,6.60938 1.45888,6.13088 3.96537,10.39539 9.0625,14.125 5.76113,2.65898 11.64107,2.41411 17.90625,2.64844 3.72876,0.50321 4.92391,0.87233 7.53125,3.47656 0.67847,2.62402 0.67847,2.62402 0.94922,5.85938 0.12101,1.23709 0.24202,2.47419 0.3667,3.74877 0.0594,0.67091 0.11887,1.34182 0.18011,2.03305 1.37889,15.18686 3.95227,30.09005 6.87897,45.0463 0.19554,1.0043 0.39109,2.0086 0.59256,3.04333 1.93411,9.91102 3.92731,19.80901 5.98556,29.69495 0.28868,1.39817 0.57726,2.79637 0.86573,4.19458 0.51914,2.49841 1.04922,4.99458 1.59277,7.48779 2.5968,12.41335 2.5968,12.41335 -0.54834,17.8606 C 371.62137,335.13205 363.28943,339.23686 355,342 c -1.0154,4.10224 -1.0154,4.10224 0,8 7.18071,0.95743 12.11161,-2.10193 18,-6 5.28737,-4.05606 9.66932,-8.20752 13,-14 9.54834,0.49366 18.70709,2.46153 28,4.5625 0.78769,0.17668 1.57537,0.35336 2.38693,0.5354 C 483.00354,350.10697 483.00354,350.10697 499,370 c 2.74979,4.46278 2.51743,8.9065 2,14 -5.49351,15.03488 -23.45084,23.41642 -37,30 -43.76742,19.99172 -88.46047,30.21928 -136.5625,30.25 -0.95914,6.7e-4 -1.91829,10e-4 -2.90649,0.002 C 293.05063,444.21726 262.06639,440.9122 231,436 c -0.72397,-0.11326 -1.44794,-0.22651 -2.19385,-0.3432 -22.1366,-3.47575 -43.9395,-8.21349 -65.76538,-13.24852 -0.67345,-0.15536 -1.34691,-0.31072 -2.04077,-0.47078 -0.67378,-0.15544 -1.34755,-0.31087 -2.04175,-0.47102 -21.00549,-4.84114 -41.94617,-8.98146 -63.3186,-11.84099 -7.7728,-1.04084 -15.53287,-2.16992 -23.29157,-3.31055 -2.48039,-0.36034 -4.96246,-0.70589 -7.44525,-1.04932 -8.12581,-1.15606 -16.07421,-2.65094 -24.02392,-4.70703 -0.76005,-0.19449 -1.52009,-0.38898 -2.30317,-0.58937 C 27.96022,397.09611 16.05701,392.61995 10,383 7.00409,377.00817 6.81202,369.6488 8.875,363.3125 15.29902,349.45014 28.9263,342.55659 42.61328,337.20703 75.4238,325.51332 110.31317,321.00793 145,320 c 0.17596,-0.61601 0.35191,-1.23202 0.5332,-1.8667 1.71621,-5.88013 3.67271,-11.58013 5.9668,-17.2583 0.34257,-0.85054 0.68514,-1.70108 1.03809,-2.57739 C 157.00068,287.3694 161.98187,276.68155 167,266 c 0.71978,-1.54228 0.71978,-1.54228 1.4541,-3.11572 C 186.92425,223.38039 208.83662,184.94223 235,150 c 0.44827,-0.60135 0.89654,-1.2027 1.3584,-1.82227 19.80613,-26.47814 44.01794,-58.248042 78.68579,-63.581783 C 359.11098,78.632691 398.46679,86.670683 435,112 Z M 172,348 c -1.34224,2.80166 -1.34224,2.80166 -1,6 3.93475,3.80299 8.03343,6.33324 13.0625,8.5 1.02831,0.44328 1.02831,0.44328 2.07739,0.89551 30.14008,12.371 65.41149,12.72213 97.50504,12.90103 1.89486,0.0106 3.78971,0.0255 5.68451,0.0449 2.67169,0.0237 5.34253,0.0262 8.01431,0.0219 1.20128,0.0137 1.20128,0.0137 2.42683,0.0276 4.54619,-0.0373 7.69076,-0.4181 11.22942,-3.3909 0.58345,-3.04254 0.58345,-3.04254 0,-6 -3.06096,-3.06096 -6.65553,-2.3189 -10.76562,-2.34375 -0.89259,-0.0138 -1.78518,-0.0275 -2.70481,-0.0417 -1.9234,-0.0296 -3.84686,-0.0553 -5.77035,-0.0776 -5.04787,-0.062 -10.09487,-0.16383 -15.14203,-0.26743 -1.50595,-0.0307 -1.50595,-0.0307 -3.04233,-0.0619 -31.44186,-0.68038 -65.7748,-1.66324 -94.04752,-16.85213 -3.36767,-1.80616 -4.33631,-1.5493 -7.52734,0.64453 z"
     fill="#000000"
     id="path1"
     style="fill:#800080" />
</svg>
