<?xml version="1.0" encoding="UTF-8" standalone="no"?>
<svg
   version="1.1"
   width="493.81488"
   height="361.5303"
   id="svg1"
   xmlns="http://www.w3.org/2000/svg"
   xmlns:svg="http://www.w3.org/2000/svg">
  <defs
     id="defs1" />
  <path
     d="m 427.49189,29.278267 c 0.57363,0.386558 1.14726,0.773115 1.73828,1.171387 24.82864,16.777111 42.48769,51.383439 50.26172,79.828616 0.89433,4.93879 1.60182,9.19454 0,14 -3.61007,1.80503 -7.12723,1.66888 -11,1 -7.54037,-3.2287 -13.44358,-8.08925 -19.36329,-13.65625 -9.12392,-8.11016 -18.97256,-15.166967 -31.63671,-14.667972 -16.11313,1.741393 -31.13745,10.546822 -45.2334,18.043942 -1.04447,0.54882 -2.08893,1.09764 -3.16504,1.66309 -0.93248,0.50161 -1.86495,1.00321 -2.82569,1.52002 -3.16203,1.24979 -5.40448,1.44206 -8.77587,1.09717 -2.125,-1.9375 -2.125,-1.9375 -4,-4 -4.60412,-1.65578 -9.75761,-1.32705 -14.58985,-1.52344 -3.65236,-0.51041 -5.56209,-1.15327 -8.41015,-3.47656 -1.24536,-2.56446 -1.9908,-5.09447 -2.8125,-7.82032 -1.01417,-2.40888 -1.01417,-2.40888 -3.625,-3.171871 -2.56064,-0.233606 -2.56064,-0.233606 -4.40625,1.132811 -1.56612,2.5185 -1.26337,3.73448 -0.65625,6.60938 1.45888,6.13088 3.96537,10.39539 9.0625,14.125 5.76113,2.65898 11.64107,2.41411 17.90625,2.64843 3.72876,0.50322 4.9239,0.87234 7.53125,3.47657 0.67846,2.62402 0.67846,2.62402 0.94921,5.85938 0.12101,1.23709 0.24203,2.47419 0.3667,3.74877 0.0594,0.67091 0.11888,1.34182 0.18012,2.03305 1.37888,15.18686 3.95227,30.09005 6.87897,45.0463 0.19554,1.0043 0.39108,2.0086 0.59256,3.04333 1.9341,9.91102 3.9273,19.80901 5.98556,29.69495 0.28867,1.39817 0.57725,2.79637 0.86572,4.19458 0.51915,2.49841 1.04923,4.99458 1.59278,7.48779 2.59679,12.41335 2.59679,12.41335 -0.54834,17.8606 -6.24191,6.1633 -14.57385,10.26811 -22.86328,13.03125 -1.01541,4.10224 -1.01541,4.10224 0,8 7.18071,0.95743 12.1116,-2.10193 18,-6 5.28736,-4.05606 9.66932,-8.20752 13,-14 9.54833,0.49366 18.70709,2.46153 28,4.5625 0.78768,0.17668 1.57537,0.35336 2.38693,0.5354 66.61661,15.00907 66.61661,15.00907 82.61307,34.9021 2.74979,4.46278 2.51743,8.9065 2,14 -5.49352,15.03488 -23.45085,23.41642 -37,30 -43.76742,19.99172 -88.46048,30.21928 -136.5625,30.25 -0.95914,6.7e-4 -1.91829,10e-4 -2.90649,0.002 -31.48038,-0.0347 -62.46462,-3.3398 -93.53101,-8.252 -0.72397,-0.11326 -1.44794,-0.22651 -2.19385,-0.3432 -22.1366,-3.47575 -43.9395,-8.21349 -65.76538,-13.24852 -0.67345,-0.15536 -1.34691,-0.31072 -2.04077,-0.47078 -0.67378,-0.15544 -1.34755,-0.31087 -2.04175,-0.47102 -21.00549,-4.84114 -41.94617,-8.98146 -63.318604,-11.84099 -7.7728,-1.04084 -15.53287,-2.16992 -23.29157,-3.31055 -2.48039,-0.36034 -4.96246,-0.70589 -7.44525,-1.04932 -8.12581,-1.15606 -16.07421,-2.65094 -24.02392,-4.70703 -0.76005,-0.19449 -1.52009,-0.38898 -2.30317,-0.58937 -10.61552,-2.87311 -22.5187303,-7.34927 -28.5757403,-16.96922 -2.99591004,-5.99183 -3.18798004,-13.3512 -1.125,-19.6875 6.42402,-13.86236 20.0513003,-20.75591 33.7382803,-26.10547 32.81052,-11.69371 67.699894,-16.1991 102.386724,-17.20703 0.17596,-0.61601 0.35191,-1.23202 0.5332,-1.8667 1.71621,-5.88013 3.67271,-11.58013 5.9668,-17.2583 0.34257,-0.85054 0.68514,-1.70108 1.03809,-2.57739 4.46259,-10.92821 9.44378,-21.61606 14.46191,-32.29761 0.71978,-1.54228 0.71978,-1.54228 1.4541,-3.11572 18.47015,-39.50389 40.38252,-77.94205 66.5459,-112.884283 0.44827,-0.601348 0.89654,-1.202695 1.3584,-1.822266 19.80613,-26.478147 44.01794,-58.2480461 78.68579,-63.5817871 44.06678,-5.963256 83.42259,2.074736 119.95581,27.4040531 z m -263,236.000003 c -1.34224,2.80166 -1.34224,2.80166 -1,6 3.93475,3.80299 8.03343,6.33324 13.0625,8.5 1.02831,0.44328 1.02831,0.44328 2.07739,0.89551 30.14008,12.371 65.41149,12.72213 97.50504,12.90103 1.89486,0.0106 3.78971,0.0255 5.68451,0.0449 2.67169,0.0237 5.34253,0.0262 8.01431,0.0219 1.20128,0.0137 1.20128,0.0137 2.42683,0.0276 4.54619,-0.0373 7.69076,-0.4181 11.22942,-3.3909 0.58345,-3.04254 0.58345,-3.04254 0,-6 -3.06096,-3.06096 -6.65553,-2.3189 -10.76562,-2.34375 -0.89259,-0.0138 -1.78518,-0.0275 -2.70481,-0.0417 -1.9234,-0.0296 -3.84686,-0.0553 -5.77035,-0.0776 -5.04787,-0.062 -10.09487,-0.16383 -15.14203,-0.26743 -1.50595,-0.0307 -1.50595,-0.0307 -3.04233,-0.0619 -31.44186,-0.68038 -65.7748,-1.66324 -94.04752,-16.85213 -3.36767,-1.80616 -4.33631,-1.5493 -7.52734,0.64453 z"
     fill="#000000"
     id="path1"
     style="fill:#800080" />
</svg>
